<svg width="44" height="9" viewBox="0 0 44 9" fill="none" xmlns="http://www.w3.org/2000/svg">
<path d="M-4.43608e-05 0.937278V-0.000222206H6.54541V0.937278H3.80109V8.72705H2.74427V0.937278H-4.43608e-05ZM8.17645 8.72705V-0.000222206H11.1253C11.8071 -0.000222206 12.3668 0.116255 12.8043 0.34921C13.2418 0.579323 13.5657 0.896085 13.7759 1.29949C13.9861 1.7029 14.0912 2.16171 14.0912 2.67591C14.0912 3.19012 13.9861 3.64608 13.7759 4.04381C13.5657 4.44154 13.2432 4.75404 12.8085 4.98131C12.3739 5.20574 11.8185 5.31796 11.1424 5.31796H8.75599V4.36341H11.1083C11.5742 4.36341 11.9492 4.29523 12.2333 4.15887C12.5202 4.02251 12.7276 3.82932 12.8554 3.57932C12.9861 3.32648 13.0514 3.02535 13.0514 2.67591C13.0514 2.32648 12.9861 2.02108 12.8554 1.75972C12.7247 1.49836 12.5159 1.29665 12.229 1.15461C11.9421 1.00972 11.5628 0.937278 11.0912 0.937278H9.23327V8.72705H8.17645ZM12.2844 4.8066L14.4321 8.72705H13.2049L11.0912 4.8066H12.2844ZM16.2102 8.72705H15.1022L18.3068 -0.000222206H19.3977L22.6022 8.72705H21.4943L18.8863 1.38046H18.8181L16.2102 8.72705ZM16.6193 5.31796H21.0852V6.25546H16.6193V5.31796ZM23.4992 -0.000222206L26.0902 7.34637H26.1924L28.7833 -0.000222206H29.8913L26.6867 8.72705H25.5958L22.3913 -0.000222206H23.4992ZM31.2507 8.72705V-0.000222206H36.5177V0.937278H32.3075V3.88614H36.245V4.82364H32.3075V7.78955H36.5859V8.72705H31.2507ZM38.4225 8.72705V-0.000222206H39.4794V7.78955H43.5362V8.72705H38.4225Z" fill="white"/>
</svg>
